<svg width="64" height="64" viewBox="0 0 64 64" fill="none" xmlns="http://www.w3.org/2000/svg">
  <rect width="64" height="64" rx="18" fill="#0F4F63"/>
  <path
    d="M28.5 13C24.9101 13 22 15.9101 22 19.5V27H14.5C10.9101 27 8 29.9101 8 33.5V36.5C8 40.0899 10.9101 43 14.5 43H22V50.5C22 54.0899 24.9101 57 28.5 57H31.5C35.0899 57 38 54.0899 38 50.5V39.4308L45.452 46.8828L50.9853 41.3495L42.105 32.4692H49.5C53.0899 32.4692 56 29.5591 56 25.9692V22.9692C56 19.3793 53.0899 16.4692 49.5 16.4692H39.4794L47.6631 8.28553L42.1298 2.75222L30.689 14.193C30.014 13.4258 29.0252 13 28.5 13Z"
    fill="white"
  />
</svg>
